# xmcd
#
# Track frame offsets: 
#        150
#        24883
#        44649
#        64984
#        81040
#        103012
#        118636
#        132125
#        156165
#        171450
#        192478
#        214472
#        233984
#        255969
#
# Disc length: 3820 seconds
#
# Revision: 0
# Processed by: cddbd v1.5.2PL0 Copyright (c) Steve Scherf et al.
# Submitted via: ExactAudioCopy v1.3
#
DISCID=c60eea0e
DTITLE=Various Artist - Soul Bag Sampler, Dec 2012
DYEAR=2012
DGENRE=Blues
TTITLE0=Shemekia Copeland - Ain't gonna be your tatoo
TTITLE1=The Robert Cray Band - Worry
TTITLE2=Curtis Salgado - He played his harmonica
TTITLE3=Bettye Lavette - I'm not the one
TTITLE4=Monophonics - Deception
TTITLE5=Dr. John - Revolution
TTITLE6=John Cleary - Viva la money
TTITLE7=Chuck Perkins - Whoa lil brother
TTITLE8=Johnnie Bassett - Proud to be from Detroit
TTITLE9=The Endangered - Broke heart
TTITLE10=Raphaël Wressing and Alex Schulz feat. Tad Robinson - Go now
TTITLE11=Milton Hopkins and Jewell Brown - Jerry
TTITLE12=Rick Estrin And The Nightcats - One wrong turn
TTITLE13=Linsey Alexander - My mama gave me the blues
EXTD=
EXTT0=
EXTT1=
EXTT2=
EXTT3=
EXTT4=
EXTT5=
EXTT6=
EXTT7=
EXTT8=
EXTT9=
EXTT10=
EXTT11=
EXTT12=
EXTT13=
PLAYORDER=
